<svg xmlns="http://www.w3.org/2000/svg" width="1em" height="1em" viewBox="0 0 48 48"><g fill="none" stroke="currentColor" stroke-width="4"><path d="M39 6H9a3 3 0 0 0-3 3v30a3 3 0 0 0 3 3h30a3 3 0 0 0 3-3V9a3 3 0 0 0-3-3Z"/><path stroke-linecap="round" stroke-linejoin="round" d="M14 15v18"/><path stroke-linecap="round" stroke-linejoin="round" d="M16 25c3 0 7-.8 7-5s-4-5-7-5h-2v10z" clip-rule="evenodd"/><path stroke-linecap="round" stroke-linejoin="round" d="M34 21.025c-1 0-6-.498-6 2.987c0 3.486 6 2.49 6 5.976c0 3.485-6 2.987-6 2.987"/></g></svg>